<?xml version="1.0" encoding="UTF-8"?>
<svg id="Capa_1" data-name="Capa 1" xmlns="http://www.w3.org/2000/svg" viewBox="0 0 512 512">
  <defs>
    <style>
      .cls-1 {
        fill: #d2173a;
      }

      .cls-2 {
        fill: #00122e;
      }

      .cls-3 {
        fill: #001b42;
      }

      .cls-4 {
        fill: #a80e39;
      }
    </style>
  </defs>
  <g>
    <path class="cls-1" d="m292.76,19.3C194.91.46,103.29,65.98,90.71,206.24c0,0,.01-.06.03-.14-5.25,46.53,11.78,113.36,39,169.15,18.39,5.29,30.29,8.66,55.34,8.14-41.62-143.51,6.06-225.58,44.08-251.5h0c-12.69,8.65,10.13-7.33,18.23-12.86,47.93,3.67,100.23,13.7,143.03,35.33,10.67-63.72-30.37-122.11-97.66-135.06Z"/>
    <path class="cls-4" d="m340.46,100.92c-35.03-6.38-67.9,2-92.98,18.11l4.66.36c11.86.9,23.79,2.29,35.46,4.11,39.86,6.21,75.39,17,102.83,30.86,1.09-35.13-13.84-46.87-49.96-53.44Z"/>
    <path class="cls-3" d="m418.12,189.36c-39.68-36.29-113.62-52.36-167.02-56.43-16.23,11.08-28.05,17.39-42.48,40.52,66.89,17.6,150.44,55.44,188.21,136.7,2.95,6.34,10.94,24.84,13.78,36.74-28.81,45.45-65.88,90-109.15,119.38-.1-.08-.2-.16-.31-.24,50.46,40.66,120.75,33.31,164.98-17.74,62.75-72.47,54.94-178.85-47.99-258.91Z"/>
    <path class="cls-2" d="m410.17,347.56l-3.07,4.83c-29.83,47.01-68.49,88.44-105.02,113.42,2.56,2.5,49.78,20.9,78.51-10.01,28.29-30.44,35.06-74.1,29.58-108.25Z"/>
    <path class="cls-3" d="m395.64,345.11l-3.69-10.74c-4.06-11.85-9.13-22.84-15.01-33.04-77.28,85.04-178.74,107.71-256.76,85.3-22.87-46.92-41.21-100.34-43.71-152.06.73-.3-7.16,3.04-11.52,5.37-138.7,74.2-26.94,336.6,209.49,226.98-.05-.07-.12-.16-.18-.24,42.24-21.49,88.84-70.3,121.37-121.58Z"/>
    <path class="cls-2" d="m120.18,386.63c-4.32-8.86-12.86-25.94-21.85-50.95-10.85-28.63-18.23-58.05-20.48-84.34-.44-3.91-1.11-12.99-1.38-16.77-4.65,1.19-49.43,32.21-34.85,76.69,14.12,43.1,56.07,69.6,78.56,75.37Z"/>
    <path class="cls-3" d="m208.62,173.45c16.29,4.29,33.57,9.79,50.94,16.81,14.93-21.4,34.21-38.58,59.12-46.81-10.82-2.58-21.93-4.78-33.17-6.54-11.43-1.78-22.96-3.11-34.4-3.99l-14.8,10.1c-9.03,6.15-18.88,16.31-27.68,30.42Z"/>
  </g>
  <circle class="cls-1" cx="247.47" cy="286.77" r="52.05"/>
</svg>