<?xml version="1.0" encoding="UTF-8"?>
<svg id="Capa_1" data-name="Capa 1" xmlns="http://www.w3.org/2000/svg" viewBox="0 0 150 70">
  <defs>
    <style>
      .cls-1 {
        fill: #d2173a;
      }

      .cls-2 {
        fill: #00122e;
      }

      .cls-3 {
        fill: #001b42;
      }

      .cls-4 {
        fill: #a80e39;
      }
    </style>
  </defs>
  <g>
    <path class="cls-3" d="m55.45,30.08h-3.19v9.14h-2.53v-9.14h-3.18v-2.05h8.89v2.05Z"/>
    <path class="cls-3" d="m60.73,33.46c-.3-.16-.64-.24-1.04-.24-.54,0-.95.2-1.26.59-.3.39-.45.93-.45,1.6v3.82h-2.47v-7.99h2.47v1.48h.03c.39-1.08,1.09-1.62,2.11-1.62.26,0,.46.03.61.09v2.27Z"/>
    <path class="cls-3" d="m68.52,39.22h-2.33v-1.15h-.03c-.54.89-1.33,1.34-2.38,1.34-.78,0-1.38-.22-1.83-.66-.44-.44-.67-1.03-.67-1.76,0-1.55.92-2.44,2.75-2.68l2.17-.29c0-.87-.47-1.31-1.42-1.31s-1.86.28-2.72.85v-1.86c.34-.18.81-.33,1.41-.47s1.14-.2,1.63-.2c2.28,0,3.42,1.14,3.42,3.41v4.78Zm-2.32-3.25v-.54l-1.45.19c-.8.1-1.2.47-1.2,1.08,0,.28.1.51.29.69.2.18.46.27.79.27.46,0,.84-.16,1.13-.48.29-.32.44-.72.44-1.21Z"/>
    <path class="cls-3" d="m78.19,39.22h-2.46v-4.44c0-1.24-.44-1.86-1.33-1.86-.43,0-.78.16-1.05.49-.28.33-.41.74-.41,1.25v4.56h-2.47v-7.99h2.47v1.26h.03c.59-.97,1.44-1.46,2.57-1.46,1.77,0,2.65,1.1,2.65,3.29v4.89Z"/>
    <path class="cls-3" d="m79.62,39.01v-2c.41.24.81.43,1.21.55.4.12.78.18,1.14.18.44,0,.78-.06,1.03-.18.25-.12.38-.3.38-.55,0-.16-.06-.29-.17-.39-.11-.1-.26-.19-.44-.27-.18-.08-.38-.15-.59-.21-.21-.06-.42-.13-.62-.21-.32-.12-.6-.25-.84-.39s-.44-.3-.61-.48-.29-.39-.37-.63c-.09-.24-.13-.52-.13-.85,0-.45.1-.83.29-1.15.2-.32.46-.59.78-.79.33-.21.7-.36,1.12-.45.42-.1.85-.14,1.31-.14.35,0,.71.03,1.08.08.36.05.72.13,1.08.24v1.9c-.31-.18-.65-.32-1-.41-.36-.09-.71-.14-1.05-.14-.16,0-.31.01-.46.04s-.27.07-.38.12-.2.12-.26.21c-.06.09-.09.18-.09.29,0,.15.05.27.14.37.09.1.22.19.37.27.15.08.32.14.5.2.18.06.37.12.55.18.33.11.62.24.89.37.27.14.49.29.68.48.19.18.34.4.44.64.1.24.15.54.15.87,0,.47-.1.88-.31,1.21-.21.34-.48.61-.82.82-.34.21-.73.36-1.18.46-.44.1-.91.14-1.38.14-.88,0-1.69-.14-2.44-.41Z"/>
    <path class="cls-3" d="m89.67,38.29h-.03v4.6h-2.47v-11.66h2.47v1.2h.03c.61-.93,1.46-1.4,2.57-1.4,1.04,0,1.83.36,2.4,1.07.56.71.85,1.68.85,2.9,0,1.33-.33,2.4-.99,3.21-.66.81-1.53,1.21-2.63,1.21-.96,0-1.7-.37-2.2-1.12Zm-.07-3.28v.64c0,.55.15,1,.44,1.35.29.35.67.52,1.15.52.56,0,1-.22,1.31-.65.31-.43.46-1.05.46-1.85,0-1.4-.55-2.11-1.64-2.11-.5,0-.92.19-1.24.57-.32.38-.48.89-.48,1.52Z"/>
    <path class="cls-3" d="m100.89,39.42c-1.33,0-2.38-.37-3.14-1.12-.76-.75-1.14-1.76-1.14-3.04s.4-2.35,1.19-3.1c.79-.75,1.86-1.12,3.21-1.12s2.37.37,3.12,1.12c.75.75,1.13,1.73,1.13,2.96,0,1.33-.39,2.37-1.17,3.14-.78.77-1.84,1.15-3.19,1.15Zm.06-6.49c-.58,0-1.04.2-1.36.6-.32.4-.48.97-.48,1.7,0,1.53.62,2.3,1.86,2.3s1.77-.79,1.77-2.36c0-1.49-.6-2.24-1.79-2.24Z"/>
    <path class="cls-3" d="m112.06,33.46c-.3-.16-.64-.24-1.04-.24-.54,0-.95.2-1.26.59-.3.39-.45.93-.45,1.6v3.82h-2.47v-7.99h2.47v1.48h.03c.39-1.08,1.09-1.62,2.11-1.62.26,0,.46.03.61.09v2.27Z"/>
    <path class="cls-3" d="m118.5,39.13c-.36.19-.91.29-1.65.29-1.74,0-2.61-.9-2.61-2.71v-3.66h-1.3v-1.82h1.3v-1.72l2.46-.7v2.43h1.79v1.82h-1.79v3.23c0,.83.33,1.25.99,1.25.26,0,.53-.08.8-.23v1.83Z"/>
    <path class="cls-3" d="m126.53,39.22h-2.33v-1.15h-.03c-.54.89-1.33,1.34-2.38,1.34-.78,0-1.38-.22-1.83-.66-.44-.44-.67-1.03-.67-1.76,0-1.55.92-2.44,2.75-2.68l2.17-.29c0-.87-.47-1.31-1.42-1.31s-1.86.28-2.72.85v-1.86c.34-.18.81-.33,1.41-.47s1.14-.2,1.63-.2c2.28,0,3.42,1.14,3.42,3.41v4.78Zm-2.32-3.25v-.54l-1.45.19c-.8.1-1.2.47-1.2,1.08,0,.28.1.51.29.69.2.18.46.27.79.27.46,0,.84-.16,1.13-.48.29-.32.44-.72.44-1.21Z"/>
    <path class="cls-1" d="m134.54,38.93c-.56.32-1.36.48-2.41.48-1.23,0-2.22-.37-2.98-1.12-.76-.74-1.14-1.7-1.14-2.88,0-1.36.41-2.43,1.22-3.21.81-.78,1.9-1.17,3.27-1.17.94,0,1.62.12,2.04.37v2.09c-.52-.38-1.09-.58-1.72-.58-.71,0-1.27.21-1.68.62-.41.41-.62.98-.62,1.71s.2,1.26.59,1.67c.4.4.94.6,1.63.6.61,0,1.21-.19,1.8-.58v1.98Z"/>
    <path class="cls-1" d="m139.96,39.42c-1.33,0-2.38-.37-3.14-1.12-.76-.75-1.14-1.76-1.14-3.04s.4-2.35,1.19-3.1c.79-.75,1.86-1.12,3.21-1.12s2.37.37,3.12,1.12c.75.75,1.13,1.73,1.13,2.96,0,1.33-.39,2.37-1.17,3.14-.78.77-1.84,1.15-3.19,1.15Zm.06-6.49c-.58,0-1.03.2-1.36.6-.32.4-.48.97-.48,1.7,0,1.53.62,2.3,1.86,2.3s1.77-.79,1.77-2.36c0-1.49-.6-2.24-1.79-2.24Z"/>
    <path class="cls-1" d="m148.39,39.22h-2.47v-11.83h2.47v11.83Z"/>
  </g>
  <g>
    <path class="cls-3" d="m91.25,46.35v-.59c.3.22.63.33.98.33.48,0,.72-.16.72-.48,0-.09-.02-.17-.06-.23s-.1-.12-.17-.17c-.07-.05-.15-.09-.25-.13-.09-.04-.2-.08-.3-.12-.15-.06-.28-.12-.4-.18-.11-.06-.21-.13-.29-.21-.08-.08-.13-.16-.17-.26-.04-.1-.06-.21-.06-.34,0-.16.04-.3.11-.42.07-.12.17-.23.29-.31.12-.08.26-.15.42-.19s.32-.06.48-.06c.3,0,.56.05.79.15v.55c-.25-.16-.54-.25-.87-.25-.1,0-.19.01-.28.04-.08.02-.15.06-.21.1-.06.04-.1.09-.14.15-.03.06-.05.12-.05.19,0,.09.02.16.05.22.03.06.08.11.14.16.06.05.14.09.23.13.09.04.19.08.3.12.15.06.29.12.41.18.12.06.22.13.31.21.08.08.15.17.19.27s.07.22.07.36c0,.17-.04.32-.11.44-.07.12-.17.23-.3.31-.12.08-.27.14-.43.18-.16.04-.33.06-.51.06-.35,0-.66-.07-.91-.2Z"/>
    <path class="cls-3" d="m97.11,44.91h-2.41c0,.38.11.67.31.88s.46.31.81.31c.38,0,.74-.13,1.06-.38v.51c-.3.22-.7.33-1.19.33s-.86-.16-1.14-.46c-.28-.31-.41-.75-.41-1.31,0-.53.15-.96.45-1.3s.67-.5,1.12-.5.79.14,1.04.43c.24.29.37.69.37,1.2v.29Zm-.56-.46c0-.32-.08-.56-.23-.74-.15-.18-.36-.26-.62-.26s-.48.09-.66.28c-.18.18-.29.43-.33.72h1.84Z"/>
    <path class="cls-3" d="m99.74,43.62c-.1-.07-.23-.11-.41-.11-.23,0-.43.11-.58.33s-.23.52-.23.9v1.74h-.55v-3.41h.55v.7h.01c.08-.24.2-.43.36-.56.16-.13.34-.2.54-.2.14,0,.25.02.33.05v.57Z"/>
    <path class="cls-3" d="m103.04,43.06l-1.36,3.41h-.54l-1.29-3.41h.6l.87,2.48c.06.18.1.34.12.48h.01c.02-.17.06-.33.11-.46l.91-2.49h.58Z"/>
    <path class="cls-3" d="m103.92,42.2c-.1,0-.18-.03-.25-.1-.07-.07-.1-.15-.1-.25s.03-.19.1-.25c.07-.07.15-.1.25-.1s.18.03.26.1c.07.07.1.15.1.25s-.04.18-.1.25c-.07.07-.16.1-.26.1Zm.27,4.28h-.55v-3.41h.55v3.41Z"/>
    <path class="cls-3" d="m107.64,46.32c-.26.16-.57.24-.93.24-.49,0-.88-.16-1.18-.47-.3-.32-.45-.73-.45-1.23,0-.56.16-1.01.48-1.35s.75-.51,1.29-.51c.3,0,.56.06.79.17v.56c-.25-.18-.52-.27-.81-.27-.35,0-.63.13-.86.37s-.34.58-.34.98.11.72.32.95c.21.23.49.35.84.35.3,0,.58-.1.84-.3v.52Z"/>
    <path class="cls-3" d="m108.77,42.2c-.1,0-.18-.03-.25-.1s-.1-.15-.1-.25.03-.19.1-.25c.07-.07.15-.1.25-.1s.18.03.25.1c.07.07.1.15.1.25s-.04.18-.1.25c-.07.07-.15.1-.25.1Zm.27,4.28h-.55v-3.41h.55v3.41Z"/>
    <path class="cls-3" d="m111.59,46.56c-.5,0-.91-.16-1.21-.48-.3-.32-.45-.74-.45-1.27,0-.57.16-1.02.47-1.34s.74-.48,1.27-.48.91.16,1.19.47c.29.31.43.75.43,1.3s-.15.98-.46,1.31c-.31.33-.72.49-1.24.49Zm.04-3.11c-.35,0-.63.12-.83.36-.2.24-.31.57-.31.99s.1.72.31.96c.21.23.48.35.83.35s.63-.11.81-.34c.19-.23.28-.55.28-.98s-.09-.76-.28-.99c-.19-.23-.46-.35-.81-.35Z"/>
    <path class="cls-3" d="m113.98,46.35v-.59c.3.22.63.33.98.33.48,0,.72-.16.72-.48,0-.09-.02-.17-.06-.23-.04-.06-.1-.12-.17-.17-.07-.05-.15-.09-.25-.13s-.2-.08-.3-.12c-.15-.06-.28-.12-.4-.18s-.21-.13-.29-.21c-.08-.08-.13-.16-.17-.26s-.06-.21-.06-.34c0-.16.04-.3.11-.42.07-.12.17-.23.29-.31.12-.08.26-.15.42-.19s.32-.06.48-.06c.3,0,.56.05.79.15v.55c-.25-.16-.54-.25-.87-.25-.1,0-.19.01-.28.04s-.15.06-.21.1c-.06.04-.1.09-.14.15-.03.06-.05.12-.05.19,0,.09.02.16.05.22.03.06.08.11.14.16s.14.09.23.13c.09.04.19.08.3.12.15.06.29.12.41.18.12.06.22.13.31.21.08.08.15.17.19.27.05.1.07.22.07.36,0,.17-.04.32-.11.44-.07.12-.17.23-.3.31-.12.08-.27.14-.43.18-.16.04-.33.06-.51.06-.35,0-.66-.07-.91-.2Z"/>
    <path class="cls-3" d="m121.73,44.91h-2.41c0,.38.11.67.31.88.2.21.46.31.81.31.38,0,.74-.13,1.06-.38v.51c-.3.22-.7.33-1.19.33s-.86-.16-1.14-.46c-.28-.31-.41-.75-.41-1.31,0-.53.15-.96.45-1.3s.67-.5,1.12-.5.79.14,1.04.43c.24.29.37.69.37,1.2v.29Zm-.56-.46c0-.32-.08-.56-.23-.74-.15-.18-.36-.26-.63-.26s-.48.09-.66.28-.29.43-.33.72h1.84Z"/>
    <path class="cls-3" d="m122.37,46.35v-.59c.3.22.63.33.98.33.48,0,.72-.16.72-.48,0-.09-.02-.17-.06-.23s-.1-.12-.17-.17c-.07-.05-.15-.09-.25-.13-.09-.04-.2-.08-.31-.12-.15-.06-.28-.12-.4-.18-.11-.06-.21-.13-.29-.21s-.13-.16-.17-.26c-.04-.1-.06-.21-.06-.34,0-.16.04-.3.11-.42.07-.12.17-.23.29-.31.12-.08.26-.15.42-.19s.32-.06.49-.06c.3,0,.56.05.79.15v.55c-.25-.16-.54-.25-.87-.25-.1,0-.19.01-.28.04-.08.02-.15.06-.21.1-.06.04-.1.09-.14.15-.03.06-.05.12-.05.19,0,.09.02.16.05.22.03.06.08.11.14.16s.14.09.23.13c.09.04.19.08.3.12.15.06.29.12.41.18.12.06.22.13.31.21.08.08.15.17.19.27s.07.22.07.36c0,.17-.04.32-.11.44-.07.12-.17.23-.3.31-.12.08-.27.14-.43.18-.16.04-.33.06-.51.06-.35,0-.66-.07-.91-.2Z"/>
    <path class="cls-3" d="m126.05,45.98h-.01v2.06h-.55v-4.98h.55v.6h.01c.27-.45.66-.68,1.18-.68.44,0,.78.15,1.03.46.25.31.37.71.37,1.23,0,.57-.14,1.03-.42,1.37-.28.34-.66.51-1.14.51-.44,0-.78-.19-1.02-.57Zm-.01-1.38v.48c0,.28.09.52.27.72.18.2.42.29.7.29.33,0,.59-.13.78-.38.19-.25.28-.61.28-1.06,0-.38-.09-.68-.26-.89-.18-.22-.41-.32-.71-.32-.32,0-.57.11-.77.33-.19.22-.29.5-.29.83Z"/>
    <path class="cls-3" d="m132.27,44.91h-2.41c0,.38.11.67.31.88s.46.31.81.31c.38,0,.74-.13,1.06-.38v.51c-.3.22-.7.33-1.19.33s-.86-.16-1.14-.46c-.28-.31-.41-.75-.41-1.31,0-.53.15-.96.45-1.3.3-.33.67-.5,1.12-.5s.79.14,1.04.43.37.69.37,1.2v.29Zm-.56-.46c0-.32-.08-.56-.23-.74s-.36-.26-.62-.26-.48.09-.66.28c-.18.18-.29.43-.33.72h1.84Z"/>
    <path class="cls-3" d="m135.44,46.32c-.26.16-.57.24-.93.24-.49,0-.88-.16-1.18-.47-.3-.32-.45-.73-.45-1.23,0-.56.16-1.01.48-1.35.32-.34.75-.51,1.29-.51.3,0,.56.06.79.17v.56c-.25-.18-.52-.27-.81-.27-.35,0-.63.13-.86.37-.22.25-.33.58-.33.98s.1.72.31.95c.21.23.49.35.84.35.3,0,.58-.1.84-.3v.52Z"/>
    <path class="cls-3" d="m136.57,42.2c-.1,0-.18-.03-.25-.1-.07-.07-.1-.15-.1-.25s.03-.19.1-.25c.07-.07.15-.1.25-.1s.18.03.25.1c.07.07.1.15.1.25s-.03.18-.1.25c-.07.07-.15.1-.25.1Zm.27,4.28h-.55v-3.41h.55v3.41Z"/>
    <path class="cls-3" d="m140.41,46.48h-.55v-.53h-.01c-.24.41-.59.61-1.05.61-.34,0-.61-.09-.8-.27s-.29-.42-.29-.72c0-.64.38-1.01,1.13-1.11l1.02-.14c0-.58-.23-.87-.7-.87-.41,0-.78.14-1.11.42v-.56c.34-.21.72-.32,1.16-.32.8,0,1.2.42,1.2,1.27v2.22Zm-.55-1.73l-.82.11c-.25.04-.44.1-.57.19-.13.09-.19.25-.19.48,0,.17.06.3.18.41.12.11.28.16.47.16.27,0,.49-.09.67-.28.18-.19.26-.43.26-.72v-.34Z"/>
    <path class="cls-3" d="m142,46.48h-.55v-5.05h.55v5.05Z"/>
    <path class="cls-3" d="m145.87,44.91h-2.41c0,.38.11.67.31.88.2.21.46.31.81.31.38,0,.74-.13,1.06-.38v.51c-.3.22-.7.33-1.19.33s-.86-.16-1.14-.46c-.28-.31-.41-.75-.41-1.31,0-.53.15-.96.45-1.3s.67-.5,1.12-.5.79.14,1.04.43c.24.29.37.69.37,1.2v.29Zm-.56-.46c0-.32-.08-.56-.23-.74-.15-.18-.36-.26-.63-.26s-.48.09-.66.28-.29.43-.33.72h1.84Z"/>
    <path class="cls-3" d="m146.51,46.35v-.59c.3.22.63.33.98.33.48,0,.72-.16.72-.48,0-.09-.02-.17-.06-.23s-.1-.12-.17-.17c-.07-.05-.15-.09-.25-.13-.09-.04-.2-.08-.31-.12-.15-.06-.28-.12-.4-.18-.11-.06-.21-.13-.29-.21s-.13-.16-.17-.26c-.04-.1-.06-.21-.06-.34,0-.16.04-.3.11-.42.07-.12.17-.23.29-.31.12-.08.26-.15.42-.19s.32-.06.49-.06c.3,0,.56.05.79.15v.55c-.25-.16-.54-.25-.87-.25-.1,0-.19.01-.28.04-.08.02-.15.06-.21.1-.06.04-.1.09-.14.15-.03.06-.05.12-.05.19,0,.09.02.16.05.22.03.06.08.11.14.16s.14.09.23.13c.09.04.19.08.3.12.15.06.29.12.41.18.12.06.22.13.31.21.08.08.15.17.19.27s.07.22.07.36c0,.17-.04.32-.11.44-.07.12-.17.23-.3.31-.12.08-.27.14-.43.18-.16.04-.33.06-.51.06-.35,0-.66-.07-.91-.2Z"/>
  </g>
  <g>
    <path class="cls-1" d="m26.9,14.04c-8.71-1.68-16.87,4.16-17.99,16.64,0,0,0,0,0-.01-.47,4.14,1.05,10.09,3.47,15.06,1.64.47,2.7.77,4.93.72-3.71-12.78.54-20.08,3.92-22.39h0c-1.13.77.9-.65,1.62-1.14,4.27.33,8.92,1.22,12.73,3.15.95-5.67-2.7-10.87-8.69-12.03Z"/>
    <path class="cls-4" d="m31.15,21.31c-3.12-.57-6.05.18-8.28,1.61l.41.03c1.06.08,2.12.2,3.16.37,3.55.55,6.71,1.51,9.16,2.75.1-3.13-1.23-4.17-4.45-4.76Z"/>
    <path class="cls-3" d="m38.07,29.18c-3.53-3.23-10.12-4.66-14.87-5.02-1.45.99-2.5,1.55-3.78,3.61,5.96,1.57,13.39,4.94,16.76,12.17.26.56.97,2.21,1.23,3.27-2.56,4.05-5.87,8.01-9.72,10.63,0,0-.02-.01-.03-.02,4.49,3.62,10.75,2.97,14.69-1.58,5.59-6.45,4.89-15.92-4.27-23.05Z"/>
    <path class="cls-2" d="m37.36,43.26l-.27.43c-2.66,4.19-6.1,7.87-9.35,10.1.23.22,4.43,1.86,6.99-.89,2.52-2.71,3.12-6.6,2.63-9.64Z"/>
    <path class="cls-3" d="m36.06,43.05l-.33-.96c-.36-1.06-.81-2.03-1.34-2.94-6.88,7.57-15.91,9.59-22.86,7.59-2.04-4.18-3.67-8.93-3.89-13.54.06-.03-.64.27-1.03.48-12.35,6.61-2.4,29.97,18.65,20.21,0,0-.01-.01-.02-.02,3.76-1.91,7.91-6.26,10.81-10.82Z"/>
    <path class="cls-2" d="m11.54,46.74c-.38-.79-1.14-2.31-1.95-4.54-.97-2.55-1.62-5.17-1.82-7.51-.04-.35-.1-1.16-.12-1.49-.41.11-4.4,2.87-3.1,6.83,1.26,3.84,4.99,6.2,6.99,6.71Z"/>
    <path class="cls-3" d="m19.41,27.76c1.45.38,2.99.87,4.54,1.5,1.33-1.91,3.05-3.44,5.26-4.17-.96-.23-1.95-.43-2.95-.58-1.02-.16-2.04-.28-3.06-.35l-1.32.9c-.8.55-1.68,1.45-2.46,2.71Z"/>
  </g>
  <circle class="cls-1" cx="22.87" cy="37.85" r="4.63"/>
</svg>