<?xml version="1.0" encoding="UTF-8"?>
<svg id="Capa_1" data-name="Capa 1" xmlns="http://www.w3.org/2000/svg" viewBox="0 0 210 70">
  <defs>
    <style>
      .cls-1 {
        fill: #d2173a;
      }

      .cls-2 {
        fill: #00122e;
      }

      .cls-3 {
        fill: #001b42;
      }

      .cls-4 {
        fill: #a80e39;
      }
    </style>
  </defs>
  <g>
    <path class="cls-3" d="m88.98,28.66h-4.08v11.68h-3.23v-11.68h-4.06v-2.62h11.37v2.62Z"/>
    <path class="cls-3" d="m95.73,32.97c-.38-.21-.82-.31-1.33-.31-.68,0-1.22.25-1.61.75-.39.5-.58,1.19-.58,2.05v4.88h-3.15v-10.21h3.15v1.89h.04c.5-1.38,1.4-2.07,2.69-2.07.33,0,.59.04.78.12v2.9Z"/>
    <path class="cls-3" d="m105.69,40.34h-2.98v-1.47h-.04c-.68,1.14-1.7,1.72-3.04,1.72-.99,0-1.77-.28-2.34-.84-.57-.56-.85-1.31-.85-2.25,0-1.98,1.17-3.13,3.52-3.43l2.77-.37c0-1.12-.61-1.68-1.82-1.68s-2.37.36-3.47,1.09v-2.37c.44-.23,1.04-.43,1.8-.6s1.45-.26,2.08-.26c2.91,0,4.37,1.45,4.37,4.36v6.1Zm-2.96-4.15v-.69l-1.86.24c-1.02.13-1.54.6-1.54,1.39,0,.36.12.65.37.88.25.23.59.34,1.01.34.59,0,1.07-.2,1.45-.61.37-.41.56-.93.56-1.55Z"/>
    <path class="cls-3" d="m118.05,40.34h-3.14v-5.68c0-1.58-.57-2.37-1.7-2.37-.55,0-.99.21-1.35.63-.35.42-.53.95-.53,1.6v5.82h-3.15v-10.21h3.15v1.62h.04c.75-1.24,1.85-1.87,3.28-1.87,2.26,0,3.39,1.4,3.39,4.21v6.25Z"/>
    <path class="cls-3" d="m119.87,40.07v-2.55c.52.31,1.04.55,1.55.7.52.15,1,.23,1.46.23.56,0,1-.08,1.32-.23.32-.15.48-.39.48-.7,0-.2-.07-.37-.22-.5-.15-.13-.33-.25-.56-.35-.23-.1-.48-.19-.75-.27-.27-.08-.54-.17-.79-.27-.41-.15-.76-.32-1.07-.49s-.57-.38-.78-.61-.37-.5-.48-.81c-.11-.31-.16-.67-.16-1.09,0-.57.12-1.06.37-1.48.25-.41.58-.75,1-1.01.42-.26.89-.46,1.43-.58.54-.12,1.09-.18,1.67-.18.45,0,.91.03,1.38.1.47.07.92.17,1.38.3v2.43c-.4-.23-.83-.41-1.28-.52-.46-.12-.9-.17-1.34-.17-.21,0-.4.02-.58.05s-.34.09-.48.16-.25.16-.33.27c-.08.11-.12.23-.12.37,0,.19.06.35.18.48.12.13.28.25.47.34.19.1.41.18.64.26.24.08.47.15.7.23.42.15.8.31,1.14.48.34.17.63.38.87.61.24.23.43.51.56.82.13.31.19.68.19,1.12,0,.61-.13,1.12-.39,1.55-.26.43-.61.78-1.05,1.05-.44.27-.94.47-1.51.59-.57.12-1.16.18-1.77.18-1.12,0-2.16-.17-3.12-.52Z"/>
    <path class="cls-3" d="m132.72,39.15h-.04v5.88h-3.15v-14.91h3.15v1.54h.04c.78-1.19,1.87-1.79,3.28-1.79,1.32,0,2.35.45,3.07,1.36.72.91,1.08,2.14,1.08,3.71,0,1.7-.42,3.07-1.26,4.1-.84,1.03-1.96,1.55-3.36,1.55-1.23,0-2.17-.48-2.81-1.44Zm-.09-4.19v.82c0,.7.19,1.28.56,1.73.37.45.86.67,1.47.67.72,0,1.27-.28,1.67-.83.4-.55.59-1.34.59-2.36,0-1.8-.7-2.69-2.09-2.69-.64,0-1.17.24-1.58.73-.41.49-.61,1.14-.61,1.94Z"/>
    <path class="cls-3" d="m147.06,40.59c-1.7,0-3.04-.48-4.01-1.43-.97-.95-1.46-2.25-1.46-3.88s.51-3.01,1.52-3.96c1.01-.95,2.38-1.43,4.1-1.43s3.03.48,3.99,1.43c.96.95,1.45,2.22,1.45,3.79,0,1.7-.5,3.04-1.49,4.02-.99.98-2.36,1.48-4.08,1.48Zm.08-8.3c-.74,0-1.32.26-1.74.77-.41.51-.62,1.24-.62,2.17,0,1.96.79,2.94,2.37,2.94s2.26-1.01,2.26-3.02c0-1.91-.76-2.86-2.28-2.86Z"/>
    <path class="cls-3" d="m161.34,32.97c-.38-.21-.82-.31-1.33-.31-.68,0-1.22.25-1.61.75-.39.5-.58,1.19-.58,2.05v4.88h-3.15v-10.21h3.15v1.89h.04c.5-1.38,1.4-2.07,2.69-2.07.33,0,.59.04.78.12v2.9Z"/>
    <path class="cls-3" d="m169.57,40.22c-.47.25-1.17.37-2.1.37-2.22,0-3.33-1.15-3.33-3.46v-4.68h-1.66v-2.32h1.66v-2.2l3.14-.9v3.1h2.29v2.32h-2.29v4.13c0,1.06.42,1.6,1.27,1.6.33,0,.67-.1,1.03-.29v2.33Z"/>
    <path class="cls-3" d="m179.85,40.34h-2.98v-1.47h-.04c-.69,1.14-1.7,1.72-3.04,1.72-.99,0-1.77-.28-2.34-.84-.57-.56-.85-1.31-.85-2.25,0-1.98,1.17-3.13,3.52-3.43l2.77-.37c0-1.12-.61-1.68-1.82-1.68s-2.37.36-3.47,1.09v-2.37c.44-.23,1.04-.43,1.8-.6s1.45-.26,2.08-.26c2.91,0,4.37,1.45,4.37,4.36v6.1Zm-2.96-4.15v-.69l-1.86.24c-1.02.13-1.54.6-1.54,1.39,0,.36.12.65.37.88.25.23.59.34,1.01.34.59,0,1.07-.2,1.45-.61.37-.41.56-.93.56-1.55Z"/>
    <path class="cls-1" d="m190.08,39.97c-.71.41-1.74.62-3.08.62-1.57,0-2.84-.48-3.81-1.43-.97-.95-1.46-2.18-1.46-3.68,0-1.74.52-3.1,1.56-4.1,1.04-1,2.43-1.5,4.17-1.5,1.2,0,2.07.16,2.61.48v2.67c-.66-.49-1.39-.74-2.2-.74-.9,0-1.62.26-2.15.79-.53.53-.79,1.26-.79,2.19s.25,1.61.76,2.13c.51.52,1.2.77,2.08.77.78,0,1.55-.25,2.3-.74v2.53Z"/>
    <path class="cls-1" d="m197.01,40.59c-1.7,0-3.04-.48-4.01-1.43-.97-.95-1.46-2.25-1.46-3.88s.51-3.01,1.52-3.96c1.01-.95,2.38-1.43,4.1-1.43s3.03.48,3.99,1.43c.96.95,1.45,2.22,1.45,3.79,0,1.7-.5,3.04-1.49,4.02-.99.98-2.36,1.48-4.08,1.48Zm.08-8.3c-.74,0-1.32.26-1.74.77-.41.51-.62,1.24-.62,2.17,0,1.96.79,2.94,2.37,2.94s2.26-1.01,2.26-3.02c0-1.91-.76-2.86-2.28-2.86Z"/>
    <path class="cls-1" d="m207.78,40.34h-3.15v-15.12h3.15v15.12Z"/>
  </g>
  <g>
    <path class="cls-3" d="m134.74,49.46v-.75c.38.28.8.42,1.26.42.61,0,.92-.2.92-.61,0-.12-.03-.22-.08-.3s-.12-.15-.21-.22c-.09-.06-.19-.12-.32-.17-.12-.05-.25-.1-.39-.16-.19-.08-.36-.15-.51-.23-.15-.08-.27-.17-.37-.26-.1-.1-.17-.21-.22-.33-.05-.12-.07-.27-.07-.44,0-.2.05-.39.14-.54.09-.16.22-.29.38-.4.16-.11.33-.19.53-.24s.41-.08.62-.08c.38,0,.72.07,1.01.2v.71c-.32-.21-.69-.32-1.11-.32-.13,0-.25.01-.35.04-.11.03-.2.07-.27.13-.08.05-.13.12-.17.19-.04.08-.06.16-.06.25,0,.11.02.21.06.29.04.08.1.14.18.2.08.06.18.11.29.16.11.05.24.1.39.16.19.07.37.15.52.23.15.08.28.17.39.26.11.1.19.21.25.34s.09.28.09.46c0,.22-.05.4-.14.56-.1.16-.22.29-.38.4-.16.11-.34.18-.55.23-.21.05-.42.08-.65.08-.45,0-.84-.09-1.17-.26Z"/>
    <path class="cls-3" d="m142.24,47.61h-3.08c.01.49.14.86.39,1.12s.59.4,1.03.4c.49,0,.94-.16,1.35-.49v.66c-.38.28-.89.42-1.52.42s-1.1-.2-1.45-.59c-.35-.4-.53-.95-.53-1.67,0-.68.19-1.23.58-1.66s.86-.64,1.43-.64,1.01.18,1.32.55c.31.37.47.88.47,1.54v.37Zm-.72-.59c0-.4-.1-.72-.29-.94-.19-.22-.46-.34-.8-.34s-.61.12-.84.35c-.23.24-.37.54-.43.92h2.36Z"/>
    <path class="cls-3" d="m145.6,45.96c-.12-.09-.3-.14-.53-.14-.3,0-.55.14-.75.42s-.3.66-.3,1.15v2.22h-.7v-4.36h.7v.9h.02c.1-.31.25-.55.46-.72.2-.17.43-.26.69-.26.18,0,.32.02.42.06v.72Z"/>
    <path class="cls-3" d="m149.81,45.25l-1.74,4.36h-.69l-1.65-4.36h.77l1.11,3.17c.08.23.13.44.15.61h.02c.03-.22.07-.42.14-.59l1.16-3.19h.74Z"/>
    <path class="cls-3" d="m150.94,44.15c-.13,0-.23-.04-.32-.13-.09-.09-.13-.19-.13-.32s.04-.24.13-.33c.09-.09.19-.13.32-.13s.24.04.33.13c.09.09.13.2.13.33s-.04.23-.13.32c-.09.09-.2.13-.33.13Zm.34,5.47h-.7v-4.36h.7v4.36Z"/>
    <path class="cls-3" d="m155.7,49.42c-.34.2-.73.3-1.19.3-.62,0-1.12-.2-1.51-.61-.38-.4-.57-.93-.57-1.57,0-.72.21-1.3.62-1.73s.96-.65,1.65-.65c.38,0,.72.07,1.01.21v.72c-.32-.23-.67-.34-1.04-.34-.45,0-.81.16-1.1.48s-.43.74-.43,1.26.13.91.4,1.21c.27.3.63.44,1.08.44.38,0,.74-.13,1.07-.38v.66Z"/>
    <path class="cls-3" d="m157.14,44.15c-.13,0-.23-.04-.32-.13s-.13-.19-.13-.32.04-.24.13-.33c.09-.09.19-.13.32-.13s.24.04.33.13c.09.09.13.2.13.33s-.04.23-.13.32c-.09.09-.2.13-.33.13Zm.34,5.47h-.7v-4.36h.7v4.36Z"/>
    <path class="cls-3" d="m160.74,49.72c-.64,0-1.16-.2-1.54-.61-.38-.41-.58-.95-.58-1.62,0-.73.2-1.3.6-1.72s.94-.62,1.62-.62,1.16.2,1.52.6c.36.4.55.96.55,1.67s-.2,1.25-.59,1.67c-.39.42-.92.63-1.58.63Zm.05-3.98c-.45,0-.8.15-1.06.46-.26.31-.39.73-.39,1.26s.13.92.4,1.22c.26.3.62.45,1.06.45s.8-.15,1.04-.44c.24-.29.36-.71.36-1.25s-.12-.97-.36-1.26c-.24-.3-.59-.44-1.04-.44Z"/>
    <path class="cls-3" d="m163.79,49.46v-.75c.38.28.8.42,1.26.42.61,0,.92-.2.92-.61,0-.12-.03-.22-.08-.3-.05-.08-.12-.15-.21-.22-.09-.06-.19-.12-.32-.17s-.25-.1-.39-.16c-.19-.08-.36-.15-.51-.23s-.27-.17-.37-.26c-.1-.1-.17-.21-.22-.33s-.07-.27-.07-.44c0-.2.05-.39.14-.54.09-.16.22-.29.38-.4.16-.11.33-.19.53-.24s.41-.08.62-.08c.38,0,.72.07,1.01.2v.71c-.32-.21-.69-.32-1.11-.32-.13,0-.25.01-.35.04s-.2.07-.27.13c-.08.05-.13.12-.17.19-.04.08-.06.16-.06.25,0,.11.02.21.06.29.04.08.1.14.18.2s.18.11.29.16c.11.05.24.1.39.16.19.07.37.15.52.23.15.08.28.17.39.26.11.1.19.21.25.34.06.13.09.28.09.46,0,.22-.05.4-.14.56-.1.16-.22.29-.38.4-.16.11-.34.18-.55.23-.21.05-.42.08-.65.08-.45,0-.84-.09-1.17-.26Z"/>
    <path class="cls-3" d="m173.71,47.61h-3.08c.01.49.14.86.39,1.12.25.26.59.4,1.03.4.49,0,.94-.16,1.35-.49v.66c-.38.28-.89.42-1.52.42s-1.1-.2-1.45-.59c-.35-.4-.53-.95-.53-1.67,0-.68.19-1.23.58-1.66s.86-.64,1.43-.64,1.01.18,1.33.55c.31.37.47.88.47,1.54v.37Zm-.72-.59c0-.4-.1-.72-.29-.94-.19-.22-.46-.34-.8-.34s-.61.12-.84.35-.37.54-.43.92h2.36Z"/>
    <path class="cls-3" d="m174.53,49.46v-.75c.38.28.8.42,1.26.42.61,0,.92-.2.92-.61,0-.12-.03-.22-.08-.3s-.12-.15-.21-.22c-.09-.06-.19-.12-.32-.17-.12-.05-.25-.1-.39-.16-.19-.08-.36-.15-.51-.23-.15-.08-.27-.17-.37-.26s-.17-.21-.22-.33c-.05-.12-.07-.27-.07-.44,0-.2.05-.39.14-.54.09-.16.22-.29.38-.4.16-.11.33-.19.53-.24s.41-.08.62-.08c.38,0,.72.07,1.01.2v.71c-.32-.21-.69-.32-1.11-.32-.13,0-.25.01-.35.04-.11.03-.2.07-.27.13-.08.05-.13.12-.17.19-.04.08-.06.16-.06.25,0,.11.02.21.06.29.04.08.1.14.18.2s.18.11.29.16c.11.05.24.1.39.16.19.07.37.15.52.23.15.08.28.17.39.26.11.1.19.21.25.34s.09.28.09.46c0,.22-.05.4-.14.56-.1.16-.22.29-.38.4-.16.11-.34.18-.55.23-.21.05-.42.08-.65.08-.45,0-.84-.09-1.17-.26Z"/>
    <path class="cls-3" d="m179.23,48.99h-.02v2.64h-.7v-6.37h.7v.77h.02c.34-.58.85-.87,1.51-.87.56,0,1,.2,1.32.59.32.39.47.91.47,1.57,0,.73-.18,1.31-.53,1.75-.35.44-.84.66-1.46.66-.57,0-1-.24-1.31-.73Zm-.02-1.76v.61c0,.36.12.67.35.92.23.25.53.38.89.38.42,0,.75-.16.99-.49.24-.32.36-.77.36-1.35,0-.49-.11-.87-.34-1.14-.22-.28-.53-.41-.91-.41-.41,0-.73.14-.98.42-.25.28-.37.64-.37,1.06Z"/>
    <path class="cls-3" d="m187.18,47.61h-3.08c.01.49.14.86.39,1.12s.59.4,1.03.4c.49,0,.94-.16,1.35-.49v.66c-.38.28-.89.42-1.52.42s-1.1-.2-1.45-.59c-.35-.4-.53-.95-.53-1.67,0-.68.19-1.23.58-1.66.38-.43.86-.64,1.43-.64s1.01.18,1.32.55.47.88.47,1.54v.37Zm-.72-.59c0-.4-.1-.72-.29-.94s-.46-.34-.8-.34-.61.12-.84.35c-.23.24-.37.54-.43.92h2.36Z"/>
    <path class="cls-3" d="m191.24,49.42c-.33.2-.73.3-1.19.3-.62,0-1.12-.2-1.51-.61-.38-.4-.57-.93-.57-1.57,0-.72.21-1.3.62-1.73.41-.44.96-.65,1.65-.65.38,0,.72.07,1.01.21v.72c-.32-.23-.67-.34-1.04-.34-.45,0-.81.16-1.1.48-.29.32-.43.74-.43,1.26s.13.91.4,1.21c.27.3.63.44,1.08.44.38,0,.74-.13,1.07-.38v.66Z"/>
    <path class="cls-3" d="m192.68,44.15c-.12,0-.23-.04-.32-.13-.09-.09-.13-.19-.13-.32s.04-.24.13-.33c.09-.09.19-.13.32-.13s.24.04.33.13c.09.09.13.2.13.33s-.04.23-.13.32c-.09.09-.2.13-.33.13Zm.34,5.47h-.7v-4.36h.7v4.36Z"/>
    <path class="cls-3" d="m197.58,49.62h-.7v-.68h-.02c-.3.52-.75.78-1.34.78-.43,0-.77-.12-1.02-.35s-.37-.54-.37-.92c0-.82.48-1.29,1.44-1.42l1.31-.18c0-.74-.3-1.11-.9-1.11-.53,0-1,.18-1.42.54v-.72c.43-.27.92-.41,1.48-.41,1.03,0,1.54.54,1.54,1.63v2.84Zm-.7-2.21l-1.05.14c-.32.05-.57.13-.73.24-.16.12-.25.32-.25.61,0,.21.08.39.23.52.15.14.35.2.61.2.35,0,.63-.12.86-.36.23-.24.34-.55.34-.92v-.43Z"/>
    <path class="cls-3" d="m199.62,49.62h-.7v-6.46h.7v6.46Z"/>
    <path class="cls-3" d="m204.57,47.61h-3.08c.01.49.14.86.39,1.12.25.26.59.4,1.03.4.49,0,.94-.16,1.35-.49v.66c-.38.28-.89.42-1.52.42s-1.1-.2-1.45-.59c-.35-.4-.53-.95-.53-1.67,0-.68.19-1.23.58-1.66s.86-.64,1.43-.64,1.01.18,1.33.55c.31.37.47.88.47,1.54v.37Zm-.72-.59c0-.4-.1-.72-.29-.94-.19-.22-.46-.34-.8-.34s-.61.12-.84.35-.37.54-.43.92h2.36Z"/>
    <path class="cls-3" d="m205.39,49.46v-.75c.38.28.8.42,1.26.42.61,0,.92-.2.92-.61,0-.12-.03-.22-.08-.3s-.12-.15-.21-.22c-.09-.06-.19-.12-.32-.17-.12-.05-.25-.1-.39-.16-.19-.08-.36-.15-.51-.23-.15-.08-.27-.17-.37-.26s-.17-.21-.22-.33c-.05-.12-.07-.27-.07-.44,0-.2.05-.39.14-.54.09-.16.22-.29.38-.4.16-.11.33-.19.53-.24s.41-.08.62-.08c.38,0,.72.07,1.01.2v.71c-.32-.21-.69-.32-1.11-.32-.13,0-.25.01-.35.04-.11.03-.2.07-.27.13-.08.05-.13.12-.17.19-.04.08-.06.16-.06.25,0,.11.02.21.06.29.04.08.1.14.18.2s.18.11.29.16c.11.05.24.1.39.16.19.07.37.15.52.23.15.08.28.17.39.26.11.1.19.21.25.34s.09.28.09.46c0,.22-.05.4-.14.56-.1.16-.22.29-.38.4-.16.11-.34.18-.55.23-.21.05-.42.08-.65.08-.45,0-.84-.09-1.17-.26Z"/>
  </g>
  <g>
    <path class="cls-1" d="m44.07,1.7C30.11-.98,17.04,8.36,15.25,28.36c0,0,0,0,0-.02-.75,6.64,1.68,16.17,5.56,24.12,2.62.75,4.32,1.23,7.89,1.16-5.94-20.47.86-32.17,6.29-35.87h0c-1.81,1.23,1.45-1.05,2.6-1.83,6.84.52,14.3,1.95,20.4,5.04,1.52-9.09-4.33-17.42-13.93-19.26Z"/>
    <path class="cls-4" d="m50.87,13.34c-5-.91-9.68.29-13.26,2.58l.66.05c1.69.13,3.39.33,5.06.59,5.69.89,10.75,2.42,14.67,4.4.16-5.01-1.97-6.68-7.13-7.62Z"/>
    <path class="cls-3" d="m61.95,25.96c-5.66-5.18-16.21-7.47-23.82-8.05-2.32,1.58-4,2.48-6.06,5.78,9.54,2.51,21.46,7.91,26.84,19.5.42.9,1.56,3.54,1.96,5.24-4.11,6.48-9.4,12.84-15.57,17.03-.01-.01-.03-.02-.04-.03,7.2,5.8,17.22,4.75,23.53-2.53,8.95-10.34,7.84-25.51-6.85-36.93Z"/>
    <path class="cls-2" d="m60.81,48.52l-.44.69c-4.25,6.71-9.77,12.61-14.98,16.18.37.36,7.1,2.98,11.2-1.43,4.03-4.34,5-10.57,4.22-15.44Z"/>
    <path class="cls-3" d="m58.74,48.17l-.53-1.53c-.58-1.69-1.3-3.26-2.14-4.71-11.02,12.13-25.49,15.36-36.62,12.17-3.26-6.69-5.88-14.31-6.23-21.69.1-.04-1.02.43-1.64.77-19.78,10.58-3.84,48.01,29.88,32.37,0-.01-.02-.02-.03-.03,6.03-3.06,12.67-10.03,17.31-17.34Z"/>
    <path class="cls-2" d="m19.45,54.09c-.62-1.26-1.83-3.7-3.12-7.27-1.55-4.08-2.6-8.28-2.92-12.03-.06-.56-.16-1.85-.2-2.39-.66.17-7.05,4.59-4.97,10.94,2.01,6.15,8,9.93,11.2,10.75Z"/>
    <path class="cls-3" d="m32.07,23.69c2.32.61,4.79,1.4,7.27,2.4,2.13-3.05,4.88-5.5,8.43-6.68-1.54-.37-3.13-.68-4.73-.93-1.63-.25-3.27-.44-4.91-.57l-2.11,1.44c-1.29.88-2.69,2.33-3.95,4.34Z"/>
  </g>
  <circle class="cls-1" cx="37.61" cy="39.85" r="7.42"/>
</svg>