<?xml version="1.0" encoding="UTF-8"?>
<svg id="Capa_1" data-name="Capa 1" xmlns="http://www.w3.org/2000/svg" viewBox="0 0 250 250">
  <defs>
    <style>
      .cls-1 {
        fill: #d2173a;
      }

      .cls-2 {
        fill: #00122e;
      }

      .cls-3 {
        fill: #001b42;
      }

      .cls-4 {
        fill: #a80e39;
      }
    </style>
  </defs>
  <g>
    <path class="cls-1" d="m143.5,9.95C95.59.73,50.74,32.8,44.58,101.47c0,0,0-.03.01-.07-2.57,22.78,5.77,55.5,19.09,82.81,9,2.59,14.83,4.24,27.09,3.98-20.37-70.26,2.97-110.44,21.58-123.13h0c-6.21,4.24,4.96-3.59,8.92-6.3,23.47,1.8,49.07,6.71,70.03,17.3,5.22-31.2-14.87-59.78-47.81-66.12Z"/>
    <path class="cls-4" d="m166.85,49.91c-17.15-3.12-33.24.98-45.52,8.87l2.28.18c5.81.44,11.65,1.12,17.36,2.01,19.51,3.04,36.91,8.32,50.34,15.11.54-17.2-6.77-22.95-24.46-26.16Z"/>
    <path class="cls-3" d="m204.87,93.21c-19.43-17.77-55.63-25.64-81.77-27.63-7.95,5.42-13.73,8.51-20.8,19.84,32.75,8.62,73.65,27.14,92.14,66.92,1.44,3.1,5.35,12.16,6.74,17.99-14.1,22.25-32.25,44.06-53.44,58.44-.05-.04-.1-.08-.15-.12,24.7,19.91,59.12,16.31,80.77-8.69,30.72-35.48,26.9-87.56-23.5-126.76Z"/>
    <path class="cls-2" d="m200.98,170.66l-1.5,2.37c-14.6,23.02-33.53,43.3-51.42,55.53,1.25,1.23,24.37,10.23,38.44-4.9,13.85-14.9,17.16-36.28,14.48-53Z"/>
    <path class="cls-3" d="m193.86,169.46l-1.8-5.26c-1.99-5.8-4.47-11.18-7.35-16.18-37.83,41.63-87.51,52.73-125.7,41.76-11.2-22.97-20.18-49.12-21.4-74.45.36-.14-3.5,1.49-5.64,2.63-67.91,36.33-13.19,164.79,102.56,111.13-.02-.04-.06-.08-.09-.12,20.68-10.52,43.49-34.42,59.42-59.52Z"/>
    <path class="cls-2" d="m59.01,189.79c-2.12-4.34-6.3-12.7-10.7-24.94-5.31-14.02-8.92-28.42-10.03-41.29-.22-1.92-.54-6.36-.67-8.21-2.28.58-24.2,15.77-17.06,37.55,6.91,21.1,27.45,34.08,38.46,36.9Z"/>
    <path class="cls-3" d="m102.3,85.42c7.98,2.1,16.44,4.79,24.94,8.23,7.31-10.48,16.75-18.89,28.94-22.92-5.3-1.26-10.74-2.34-16.24-3.2-5.59-.87-11.24-1.52-16.84-1.95l-7.25,4.94c-4.42,3.01-9.24,7.99-13.55,14.89Z"/>
  </g>
  <circle class="cls-1" cx="121.32" cy="140.9" r="25.48"/>
</svg>